{
  "accessors": [
    {
      "bufferView": 2,
      "componentType": 5126,
      "count": 312,
      "max": [
        1.1722520589828491,
        0.10092499852180481,
        0.14501599967479706
      ],
      "min": [
        -1.1722509860992432,
        -0.10092499852180481,
        0.035881999880075455
      ],
      "type": "VEC3"
    },
    {
      "bufferView": 2,
      "byteOffset": 3744,
      "componentType": 5126,
      "count": 312,
      "max": [
        0.9999984502792358,
        1.0,
        0.02228999324142933
      ],
      "min": [
        -0.9999984502792358,
        -1.0,
        -1.0
      ],
      "type": "VEC3"
    },
    {
      "bufferView": 3,
      "componentType": 5126,
      "count": 312,
      "max": [
        0.9996582269668579,
        0.9999980926513672,
        0.99984210729599,
        1.0
      ],
      "min": [
        -0.9996582865715027,
        -0.9999980926513672,
        -0.9999904036521912,
        1.0
      ],
      "type": "VEC4"
    },
    {
      "bufferView": 1,
      "componentType": 5126,
      "count": 312,
      "max": [
        0.8178070187568665,
        0.6047940254211426
      ],
      "min": [
        0.7206360101699829,
        0.0004199999966658652
      ],
      "type": "VEC2"
    },
    {
      "bufferView": 0,
      "componentType": 5125,
      "count": 1032,
      "type": "SCALAR"
    },
    {
      "bufferView": 2,
      "byteOffset": 7488,
      "componentType": 5126,
      "count": 406,
      "max": [
        1.1587820053100586,
        0.41432300209999084,
        0.1281149983406067
      ],
      "min": [
        0.9131010174751282,
        -0.41432300209999084,
        -0.13020899891853333
      ],
      "type": "VEC3"
    },
    {
      "bufferView": 2,
      "byteOffset": 12360,
      "componentType": 5126,
      "count": 406,
      "max": [
        0.9510568976402283,
        1.0,
        1.0
      ],
      "min": [
        -0.9510568976402283,
        -1.0,
        -1.0
      ],
      "type": "VEC3"
    },
    {
      "bufferView": 3,
      "byteOffset": 4992,
      "componentType": 5126,
      "count": 406,
      "max": [
        0.9999631643295288,
        0.9968103766441345,
        0.9608858823776245,
        1.0
      ],
      "min": [
        -1.0,
        -0.9969443678855896,
        -0.9509623050689697,
        1.0
      ],
      "type": "VEC4"
    },
    {
      "bufferView": 1,
      "byteOffset": 2496,
      "componentType": 5126,
      "count": 406,
      "max": [
        0.8304970264434814,
        0.8206570148468018
      ],
      "min": [
        0.6123690009117126,
        0.23537999391555786
      ],
      "type": "VEC2"
    },
    {
      "bufferView": 0,
      "byteOffset": 4128,
      "componentType": 5125,
      "count": 1260,
      "type": "SCALAR"
    },
    {
      "bufferView": 2,
      "byteOffset": 17232,
      "componentType": 5126,
      "count": 300,
      "max": [
        1.8842079639434814,
        0.03896300122141838,
        0.06007999926805496
      ],
      "min": [
        -0.03896300122141838,
        -0.03896300122141838,
        -0.13387000560760498
      ],
      "type": "VEC3"
    },
    {
      "bufferView": 2,
      "byteOffset": 20832,
      "componentType": 5126,
      "count": 300,
      "max": [
        1.0,
        1.0,
        1.0
      ],
      "min": [
        -1.0,
        -1.0,
        -1.0
      ],
      "type": "VEC3"
    },
    {
      "bufferView": 3,
      "byteOffset": 11488,
      "componentType": 5126,
      "count": 300,
      "max": [
        0.9660502672195435,
        0.7071846723556519,
        1.0,
        1.0
      ],
      "min": [
        -0.7074720859527588,
        -0.9659529328346252,
        -1.0,
        1.0
      ],
      "type": "VEC4"
    },
    {
      "bufferView": 1,
      "byteOffset": 5744,
      "componentType": 5126,
      "count": 300,
      "max": [
        0.8260179758071899,
        0.8339920043945313
      ],
      "min": [
        0.6123690009117126,
        0.0004199999966658652
      ],
      "type": "VEC2"
    },
    {
      "bufferView": 0,
      "byteOffset": 9168,
      "componentType": 5125,
      "count": 840,
      "type": "SCALAR"
    },
    {
      "bufferView": 2,
      "byteOffset": 24432,
      "componentType": 5126,
      "count": 588,
      "max": [
        1.109866976737976,
        0.3001439869403839,
        0.0881510004401207
      ],
      "min": [
        -1.1098660230636597,
        -0.3001439869403839,
        -0.11466000229120255
      ],
      "type": "VEC3"
    },
    {
      "bufferView": 2,
      "byteOffset": 31488,
      "componentType": 5126,
      "count": 588,
      "max": [
        0.998901903629303,
        1.0,
        0.9783878922462463
      ],
      "min": [
        -0.9989016652107239,
        -1.0,
        -0.9996128678321838
      ],
      "type": "VEC3"
    },
    {
      "bufferView": 3,
      "byteOffset": 16288,
      "componentType": 5126,
      "count": 588,
      "max": [
        0.9780449271202087,
        0.9998255372047424,
        0.9952443838119507,
        1.0
      ],
      "min": [
        -0.9780446290969849,
        -0.9995411038398743,
        -0.9985418319702148,
        1.0
      ],
      "type": "VEC4"
    },
    {
      "bufferView": 1,
      "byteOffset": 8144,
      "componentType": 5126,
      "count": 588,
      "max": [
        0.8195449709892273,
        0.7914270162582397
      ],
      "min": [
        0.6123690009117126,
        0.1518539935350418
      ],
      "type": "VEC2"
    },
    {
      "bufferView": 0,
      "byteOffset": 12528,
      "componentType": 5125,
      "count": 2172,
      "type": "SCALAR"
    },
    {
      "bufferView": 2,
      "byteOffset": 38544,
      "componentType": 5126,
      "count": 96,
      "max": [
        2.0745270252227783,
        0.4109730124473572,
        0.1028129979968071
      ],
      "min": [
        -2.0745270252227783,
        -0.4109730124473572,
        -0.10877099633216858
      ],
      "type": "VEC3"
    },
    {
      "bufferView": 2,
      "byteOffset": 39696,
      "componentType": 5126,
      "count": 96,
      "max": [
        0.8992043137550354,
        1.0,
        0.9985141158103943
      ],
      "min": [
        -0.8992043137550354,
        -1.0,
        -0.9985445141792297
      ],
      "type": "VEC3"
    },
    {
      "bufferView": 3,
      "byteOffset": 25696,
      "componentType": 5126,
      "count": 96,
      "max": [
        0.27590709924697876,
        1.0,
        0.9999255537986755,
        1.0
      ],
      "min": [
        -0.3266684412956238,
        -1.0,
        -1.0,
        1.0
      ],
      "type": "VEC4"
    },
    {
      "bufferView": 1,
      "byteOffset": 12848,
      "componentType": 5126,
      "count": 96,
      "max": [
        0.6115289926528931,
        0.9995800256729126
      ],
      "min": [
        0.0004199999966658652,
        0.0004199999966658652
      ],
      "type": "VEC2"
    },
    {
      "bufferView": 0,
      "byteOffset": 21216,
      "componentType": 5125,
      "count": 276,
      "type": "SCALAR"
    },
    {
      "bufferView": 2,
      "byteOffset": 40848,
      "componentType": 5126,
      "count": 406,
      "max": [
        -0.9111379981040955,
        0.41432300209999084,
        0.1281149983406067
      ],
      "min": [
        -1.1568189859390259,
        -0.41432300209999084,
        -0.13020899891853333
      ],
      "type": "VEC3"
    },
    {
      "bufferView": 2,
      "byteOffset": 45720,
      "componentType": 5126,
      "count": 406,
      "max": [
        0.9510565400123596,
        1.0,
        1.0
      ],
      "min": [
        -0.951057493686676,
        -1.0,
        -1.0
      ],
      "type": "VEC3"
    },
    {
      "bufferView": 3,
      "byteOffset": 27232,
      "componentType": 5126,
      "count": 406,
      "max": [
        1.0,
        0.9976897835731506,
        0.959742546081543,
        1.0
      ],
      "min": [
        -1.0,
        -0.9979687333106995,
        -0.9560897946357727,
        1.0
      ],
      "type": "VEC4"
    },
    {
      "bufferView": 1,
      "byteOffset": 13616,
      "componentType": 5126,
      "count": 406,
      "max": [
        0.8291829824447632,
        0.8215950131416321
      ],
      "min": [
        0.6123690009117126,
        0.0004199999966658652
      ],
      "type": "VEC2"
    },
    {
      "bufferView": 0,
      "byteOffset": 22320,
      "componentType": 5125,
      "count": 1260,
      "type": "SCALAR"
    }
  ],
  "asset": {
    "extras": {
      "author": "Erdem Dağdelen (https://sketchfab.com/erdemdagdelen)",
      "license": "CC-BY-4.0 (http://creativecommons.org/licenses/by/4.0/)",
      "source": "https://sketchfab.com/3d-models/skateboard-1ead1e6397844de4ad94f3c578255a04",
      "title": "Skateboard"
    },
    "generator": "Sketchfab-13.94.0",
    "version": "2.0"
  },
  "bufferViews": [
    {
      "buffer": 0,
      "byteLength": 27360,
      "name": "floatBufferViews",
      "target": 34963
    },
    {
      "buffer": 0,
      "byteLength": 16864,
      "byteOffset": 27360,
      "byteStride": 8,
      "name": "floatBufferViews",
      "target": 34962
    },
    {
      "buffer": 0,
      "byteLength": 50592,
      "byteOffset": 44224,
      "byteStride": 12,
      "name": "floatBufferViews",
      "target": 34962
    },
    {
      "buffer": 0,
      "byteLength": 33728,
      "byteOffset": 94816,
      "byteStride": 16,
      "name": "floatBufferViews",
      "target": 34962
    }
  ],
  "buffers": [
    {
      "byteLength": 128544,
      "uri": "scene.bin"
    }
  ],
  "images": [
    {
      "uri": "textures/Wheels_baseColor.jpeg"
    },
    {
      "uri": "textures/Wheels_metallicRoughness.png"
    },
    {
      "uri": "textures/Wheels_normal.png"
    },
    {
      "uri": "textures/Board_baseColor.jpeg"
    },
    {
      "uri": "textures/Board_metallicRoughness.png"
    },
    {
      "uri": "textures/Board_normal.png"
    },
    {
      "uri": "textures/Platelower_baseColor.jpeg"
    },
    {
      "uri": "textures/Platelower_metallicRoughness.png"
    },
    {
      "uri": "textures/Platelower_normal.png"
    },
    {
      "uri": "textures/Plate_cylinder_baseColor.jpeg"
    },
    {
      "uri": "textures/Plate_cylinder_metallicRoughness.png"
    },
    {
      "uri": "textures/Plate_cylinder_normal.png"
    },
    {
      "uri": "textures/Plate_baseColor.jpeg"
    },
    {
      "uri": "textures/Plate_metallicRoughness.png"
    },
    {
      "uri": "textures/Plate_normal.png"
    }
  ],
  "materials": [
    {
      "doubleSided": true,
      "name": "Wheels",
      "normalTexture": {
        "index": 2
      },
      "occlusionTexture": {
        "index": 1
      },
      "pbrMetallicRoughness": {
        "baseColorTexture": {
          "index": 0
        },
        "metallicRoughnessTexture": {
          "index": 1
        }
      }
    },
    {
      "doubleSided": true,
      "name": "Board",
      "normalTexture": {
        "index": 5
      },
      "occlusionTexture": {
        "index": 4
      },
      "pbrMetallicRoughness": {
        "baseColorTexture": {
          "index": 3
        },
        "metallicRoughnessTexture": {
          "index": 4
        }
      }
    },
    {
      "doubleSided": true,
      "name": "Platelower",
      "normalTexture": {
        "index": 8
      },
      "occlusionTexture": {
        "index": 7
      },
      "pbrMetallicRoughness": {
        "baseColorTexture": {
          "index": 6
        },
        "metallicRoughnessTexture": {
          "index": 7
        }
      }
    },
    {
      "doubleSided": true,
      "name": "Plate_cylinder",
      "normalTexture": {
        "index": 11
      },
      "occlusionTexture": {
        "index": 10
      },
      "pbrMetallicRoughness": {
        "baseColorTexture": {
          "index": 9
        },
        "metallicRoughnessTexture": {
          "index": 10
        }
      }
    },
    {
      "doubleSided": true,
      "name": "Plate",
      "normalTexture": {
        "index": 14
      },
      "occlusionTexture": {
        "index": 13
      },
      "pbrMetallicRoughness": {
        "baseColorTexture": {
          "index": 12
        },
        "metallicRoughnessTexture": {
          "index": 13
        }
      }
    }
  ],
  "meshes": [
    {
      "name": "defaultMaterial",
      "primitives": [
        {
          "attributes": {
            "NORMAL": 1,
            "POSITION": 0,
            "TANGENT": 2,
            "TEXCOORD_0": 3
          },
          "indices": 4,
          "material": 4,
          "mode": 4
        }
      ]
    },
    {
      "name": "defaultMaterial",
      "primitives": [
        {
          "attributes": {
            "NORMAL": 6,
            "POSITION": 5,
            "TANGENT": 7,
            "TEXCOORD_0": 8
          },
          "indices": 9,
          "material": 0,
          "mode": 4
        }
      ]
    },
    {
      "name": "defaultMaterial",
      "primitives": [
        {
          "attributes": {
            "NORMAL": 11,
            "POSITION": 10,
            "TANGENT": 12,
            "TEXCOORD_0": 13
          },
          "indices": 14,
          "material": 3,
          "mode": 4
        }
      ]
    },
    {
      "name": "defaultMaterial",
      "primitives": [
        {
          "attributes": {
            "NORMAL": 16,
            "POSITION": 15,
            "TANGENT": 17,
            "TEXCOORD_0": 18
          },
          "indices": 19,
          "material": 2,
          "mode": 4
        }
      ]
    },
    {
      "name": "defaultMaterial",
      "primitives": [
        {
          "attributes": {
            "NORMAL": 21,
            "POSITION": 20,
            "TANGENT": 22,
            "TEXCOORD_0": 23
          },
          "indices": 24,
          "material": 1,
          "mode": 4
        }
      ]
    },
    {
      "name": "defaultMaterial",
      "primitives": [
        {
          "attributes": {
            "NORMAL": 26,
            "POSITION": 25,
            "TANGENT": 27,
            "TEXCOORD_0": 28
          },
          "indices": 29,
          "material": 0,
          "mode": 4
        }
      ]
    }
  ],
  "nodes": [
    {
      "children": [
        1
      ],
      "matrix": [
        9.631957818315003e-19,
        0.002168924082070589,
        4.815978909157501e-19,
        0.0,
        0.0,
        4.815978909157501e-19,
        -0.002168924082070589,
        0.0,
        -0.002168924082070589,
        9.631957818315003e-19,
        2.1387242684223212e-34,
        0.0,
        0.0,
        0.0,
        0.0,
        1.0
      ],
      "name": "Sketchfab_model"
    },
    {
      "children": [
        2,
        4,
        6,
        8,
        10,
        12
      ],
      "matrix": [
        1.0,
        0.0,
        0.0,
        0.0,
        0.0,
        -4.371139006309477e-08,
        0.999999999999999,
        0.0,
        0.0,
        -0.999999999999999,
        -4.371139006309477e-08,
        0.0,
        0.0,
        0.0,
        0.0,
        1.0
      ],
      "name": "Collada visual scene group"
    },
    {
      "children": [
        3
      ],
      "matrix": [
        100.0,
        0.0,
        0.0,
        0.0,
        0.0,
        -1.6e-05,
        -100.0,
        0.0,
        0.0,
        100.0,
        -1.6e-05,
        0.0,
        -4.2e-05,
        -20.954779,
        2e-06,
        1.0
      ],
      "name": "Plate.004"
    },
    {
      "mesh": 0,
      "name": "defaultMaterial"
    },
    {
      "children": [
        5
      ],
      "matrix": [
        100.0,
        0.0,
        0.0,
        0.0,
        0.0,
        -1.6e-05,
        -100.0,
        0.0,
        0.0,
        100.0,
        -1.6e-05,
        0.0,
        -3.6e-05,
        -28.147772,
        -3e-06,
        1.0
      ],
      "name": "Wheels.004"
    },
    {
      "mesh": 1,
      "name": "defaultMaterial"
    },
    {
      "children": [
        7
      ],
      "matrix": [
        100.0,
        0.0,
        0.0,
        0.0,
        0.0,
        -1.6e-05,
        -100.0,
        0.0,
        0.0,
        100.0,
        -1.6e-05,
        0.0,
        -92.262291,
        -17.264891,
        2e-06,
        1.0
      ],
      "name": "Cylinder"
    },
    {
      "mesh": 2,
      "name": "defaultMaterial"
    },
    {
      "children": [
        9
      ],
      "matrix": [
        100.0,
        0.0,
        0.0,
        0.0,
        0.0,
        -1.6e-05,
        -100.0,
        0.0,
        0.0,
        100.0,
        -1.6e-05,
        0.0,
        -4.2e-05,
        -20.954779,
        2e-06,
        1.0
      ],
      "name": "Plate.002"
    },
    {
      "mesh": 3,
      "name": "defaultMaterial"
    },
    {
      "children": [
        11
      ],
      "matrix": [
        100.0,
        0.0,
        0.0,
        0.0,
        0.0,
        -1.6e-05,
        -100.0,
        0.0,
        0.0,
        100.0,
        -1.6e-05,
        0.0,
        -6e-06,
        3.813868,
        0.0,
        1.0
      ],
      "name": "Skateboard.002"
    },
    {
      "mesh": 4,
      "name": "defaultMaterial"
    },
    {
      "children": [
        13
      ],
      "matrix": [
        100.0,
        0.0,
        0.0,
        0.0,
        0.0,
        -1.6e-05,
        -100.0,
        0.0,
        0.0,
        100.0,
        -1.6e-05,
        0.0,
        -3.6e-05,
        -28.147772,
        -3e-06,
        1.0
      ],
      "name": "Wheels.002"
    },
    {
      "mesh": 5,
      "name": "defaultMaterial"
    }
  ],
  "samplers": [
    {
      "magFilter": 9729,
      "minFilter": 9987,
      "wrapS": 10497,
      "wrapT": 10497
    }
  ],
  "scene": 0,
  "scenes": [
    {
      "name": "Sketchfab_Scene",
      "nodes": [
        0
      ]
    }
  ],
  "textures": [
    {
      "sampler": 0,
      "source": 0
    },
    {
      "sampler": 0,
      "source": 1
    },
    {
      "sampler": 0,
      "source": 2
    },
    {
      "sampler": 0,
      "source": 3
    },
    {
      "sampler": 0,
      "source": 4
    },
    {
      "sampler": 0,
      "source": 5
    },
    {
      "sampler": 0,
      "source": 6
    },
    {
      "sampler": 0,
      "source": 7
    },
    {
      "sampler": 0,
      "source": 8
    },
    {
      "sampler": 0,
      "source": 9
    },
    {
      "sampler": 0,
      "source": 10
    },
    {
      "sampler": 0,
      "source": 11
    },
    {
      "sampler": 0,
      "source": 12
    },
    {
      "sampler": 0,
      "source": 13
    },
    {
      "sampler": 0,
      "source": 14
    }
  ]
}
